<?xml version="1.0" standalone="no"?><!DOCTYPE svg PUBLIC "-//W3C//DTD SVG 1.1//EN" "http://www.w3.org/Graphics/SVG/1.1/DTD/svg11.dtd"><svg t="1729503001811" class="icon" viewBox="0 0 1024 1024" version="1.1" xmlns="http://www.w3.org/2000/svg" p-id="6641" xmlns:xlink="http://www.w3.org/1999/xlink" width="200" height="200"><path d="M985.16 842.472c-1.716 23.872-24.156 45.324-49.472 47.62a4795.584 4795.584 0 0 1-847.376 0c-25.32-2.3-47.756-23.752-49.472-47.62-13.664-194.024 1.76-388.048 46.276-582.072 5.588-23.872 28.784-45.096 51.16-47.136a4253.008 4253.008 0 0 1 751.452 0c22.372 2.04 45.572 23.26 51.16 47.136 44.512 194.024 59.936 388.048 46.272 582.072z" fill="#0091FF" p-id="6642"></path><path d="M887.728 213.268a4266.48 4266.48 0 0 0-246.876-14.672c-74.824 115.064-169.5 235.416-266.7 353.44 109.48 111.408 227.4 225.836 335.54 332.576a5141.564 5141.564 0 0 0 265.74-17.184c5.532-7.38 9.1-15.976 9.732-24.948 13.664-194.024-1.756-388.048-46.272-582.076-5.596-23.876-28.796-45.096-51.164-47.136z" fill="#1B6DAB" opacity=".3" p-id="6643"></path><path d="M888.5 213.336A4252.92 4252.92 0 0 0 137.056 213.2c-16.468 1.468-33.188 13.348-43.26 28.944 97.18 124.056 237.964 268.8 383.432 413.424 18.192 18.088 47.804 18.092 65.996 0.008 146.684-145.776 288.712-291.796 386.208-416.736-10.236-13.864-25.688-24.14-40.932-25.504z" fill="#42AEFF" p-id="6644"></path></svg>